<svg width="568" height="776" viewBox="0 0 568 776" fill="none" xmlns="http://www.w3.org/2000/svg">
<path fill-rule="evenodd" clip-rule="evenodd" d="M4.61699 0.71606C4.27799 1.05606 3.99999 6.18205 3.99999 12.1071C3.99999 21.1791 4.41199 24.0351 6.60599 30.1901C13.977 50.8681 28.487 68.0711 51.5 83.4221C64.433 92.0491 91.792 104.953 109 110.543C118.355 113.583 112.874 113.249 99.867 109.988C60.052 100.005 31.392 86.7671 6.99999 67.0931C-0.522012 61.0251 -1.21601 61.565 1.50499 71.374C4.00899 80.401 10.358 91.95 16.62 98.87C33.999 118.073 78.628 136.036 115.384 138.619C121.352 139.039 124.706 139.667 124.32 140.292C123.435 141.723 81.922 140.428 69.38 138.578C57.627 136.845 40.298 133.017 31.043 130.109C27.492 128.994 24.481 128.186 24.352 128.315C24.224 128.443 24.996 130.509 26.069 132.905C27.151 135.323 31.464 140.701 35.76 144.989C41.833 151.052 45.331 153.596 52 156.799C69.652 165.278 84.291 167.497 117.349 166.706C130.466 166.392 141.03 166.303 140.825 166.509C140.619 166.714 135.062 168.236 128.475 169.891C106.435 175.428 81.464 177.872 65.044 176.1C59.843 175.538 55.422 175.244 55.22 175.446C54.378 176.289 58.396 182.386 62.273 186.149C67.242 190.971 75.279 195.201 84.08 197.626C88.894 198.952 94.128 199.386 105 199.359C121.176 199.319 131.322 197.595 151.639 191.437C158.026 189.501 163.677 188.059 164.197 188.232C165.247 188.582 152.034 198.184 145 202.184C137.761 206.299 123.33 211.672 111.75 214.563C105.837 216.039 101 217.601 101 218.035C101 219.489 107.454 224.299 112.552 226.642C128.873 234.147 149.07 230.911 179 215.998C195.045 208.004 196.332 208.271 187.144 217.69C179.413 225.616 171.007 231.508 156.735 239.004C150.281 242.394 145 245.75 145 246.462C145 248.665 157.249 252.483 168.13 253.671C180.104 254.979 205.092 243.133 222.25 228.015C224.863 225.713 227 224.147 227 224.535C227 224.923 223.652 229.834 219.56 235.449C211.555 246.435 203.461 254.568 192.64 262.504L185.827 267.5L192.664 268.809C203.576 270.898 215.197 269.934 223.137 266.281C231.638 262.37 240.279 256.488 247.937 249.398C251.272 246.31 254 244.408 254 245.17C254 245.933 252.477 249.734 250.616 253.618C246.934 261.301 238.006 271.623 229.888 277.582C227.2 279.556 225 281.641 225 282.216C225 282.908 228.469 283.095 235.25 282.769C247.065 282.201 254.496 279.94 262.961 274.337C269.556 269.971 279.275 260.299 281.635 255.752C282.563 253.963 283.499 253.023 283.715 253.662C284.395 255.674 275.379 272.374 269.169 280.605C261.997 290.112 245.986 305.835 233 316.123C213.767 331.36 196.055 342.026 163.908 357.729C143.542 367.677 135 374.051 135 379.301C135 383.125 137.218 382.817 147.137 377.611C155.698 373.119 165.713 369.38 166.658 370.324C166.948 370.615 165.682 371.622 163.843 372.563C157.1 376.014 142.413 386.665 136.193 392.614C129.139 399.361 128.193 402.674 133.429 402.293C138.137 401.95 155.585 392.799 170.94 382.619C178.881 377.354 185.569 373.235 185.801 373.467C186.032 373.699 180.547 379.454 173.611 386.255C163.878 395.799 161 399.214 161 401.217C161 404.397 162.254 404.204 172.824 399.394C183.585 394.498 189.109 389.968 196.853 379.692C200.662 374.636 205.516 368.866 207.639 366.869C211.321 363.406 227.362 352 228.551 352C229.174 352 223.684 359.3 211.778 374.301C203.221 385.084 201.557 389.802 206.75 388.558C211.026 387.535 219.643 381.218 225.142 375.077C227.889 372.01 233.967 363.762 238.648 356.75C243.329 349.737 247.315 344 247.504 344C247.694 344 247.618 349.287 247.335 355.75C246.412 376.845 242.853 388.717 234.816 397.511C225.703 407.482 212.624 413.259 196.513 414.43C172.699 416.16 155.862 422.125 144.622 432.813C139.566 437.62 133.53 446.887 131.527 452.919C126.989 466.581 127.865 485.113 133.601 496.832C140.736 511.406 154.133 522.715 177.75 534.096C184.488 537.343 195.717 542.751 202.705 546.113C213.187 551.156 216.498 553.313 221.628 558.443C226.663 563.478 228.162 565.749 229.509 570.384C230.903 575.178 230.981 576.91 229.991 581.036C227.818 590.095 220.551 597.386 209.5 601.596C205.434 603.144 201.977 603.487 191 603.43C178.738 603.367 176.812 603.102 170 600.547C151.145 593.474 139.815 581.47 133.103 561.457C130.043 552.334 127.731 549.399 124.563 550.614C123.024 551.205 122.907 552.335 123.493 560.889C124.711 578.647 127.81 595.072 132.115 606.578C133.974 611.546 134.623 612.203 141.308 615.883C148.059 619.599 161.548 625.417 166.881 626.913C169.029 627.515 168.441 628.133 160.881 633.212C150.61 640.113 139.518 645.517 132.313 647.129C127.739 648.153 125.777 648.079 119.698 646.658C104.266 643.049 96.403 645.069 82.399 656.24C77.393 660.233 72.443 664.079 71.399 664.786C69.74 665.91 70.035 666.017 73.726 665.635C76.051 665.394 82.379 663.127 87.79 660.598C99.097 655.313 102.482 654.978 113.911 658.018C117.987 659.102 121.507 660.173 121.732 660.399C121.958 660.625 120.146 663.89 117.706 667.655C115.266 671.42 112.038 676.683 110.533 679.352C106.642 686.251 101.257 691.252 93.887 694.809L87.5 697.892L93.59 697.946C105.085 698.048 116.614 690.163 126.525 675.42C132.611 666.368 135.953 663.571 147 658.29C150.025 656.843 154.831 655.458 157.68 655.212L162.859 654.764L164.016 659.061C166.849 669.582 162.295 679.411 150.549 688.124C137.419 697.864 136.049 698.995 134.488 701.378C132.341 704.654 130.741 714.517 131.57 719.355L132.281 723.5L133.959 716.5C137.207 702.951 140.594 699.506 155.165 694.932C165.123 691.805 168.133 689.758 172.026 683.458C174.457 679.525 177.539 670.781 179.555 662.096C181.503 653.708 185.122 647.227 191.275 641.107C197.286 635.127 204.002 631.456 218 626.498C252.039 614.442 266.576 598.366 268.608 570.532C269.836 553.715 264.918 540.855 252.528 528.486C243.688 519.661 238.594 516.66 211.26 504.178C192.739 495.721 182.178 489.301 175.339 482.344C164.868 471.691 163.117 457.631 171.124 448.511C177.432 441.327 186.333 437.918 198.937 437.858C224.315 437.737 243.794 451.445 251.009 474.5C252.56 479.457 253.745 481 256 481C259.583 481 259.982 478.951 258.933 465.936C257.804 451.92 254.885 435.016 251.99 425.729C250.922 422.303 250.459 419.36 250.96 419.188C255.215 417.732 262.334 410.532 266.605 403.366C267.604 401.691 267.908 401.897 269.757 405.506C272.438 410.738 277.826 416.041 286.729 422.211C291.036 425.195 295.188 429.078 297.001 431.815C304.387 442.966 305.271 453.32 304.745 522.5C304.292 582.127 304.087 584.556 298.484 596.835C295.18 604.074 291.055 608.293 271.886 624.041C263.298 631.095 252.73 640.835 248.402 645.684C231.542 664.57 227.294 667.801 214.5 671.46C201.501 675.179 198 680.04 198 694.373C198 710.075 195.411 715.238 184.518 721.259C179.698 723.923 177.947 725.619 175.511 729.981C171.824 736.582 167.802 739.112 159.628 739.97L153.5 740.614L158 741.925C161.473 742.937 163.869 742.989 168.5 742.154C173.756 741.205 174.996 740.512 178.5 736.562C182.037 732.575 189.472 728.139 190.648 729.314C190.885 729.552 190.597 732.764 190.008 736.453C189.051 742.438 189.176 743.903 191.163 750.074C193.952 758.733 194.996 757.405 194.761 745.5C194.554 735.092 194.832 734.411 203.289 724.585C210.948 715.685 212.41 712.196 211.625 704.687C210.613 695.009 213.467 691.661 225 688.998C232.174 687.342 236.671 685.019 243.548 679.418C246.641 676.899 249.268 674.987 249.387 675.169C249.506 675.351 250.136 678.172 250.788 681.437C251.44 684.703 253.874 691.228 256.197 695.937C259.7 703.038 260.488 705.725 260.816 711.676C261.18 718.279 260.926 719.435 257.639 726.176C255.674 730.204 251.372 736.645 248.079 740.488C239.149 750.91 235 760.986 235 772.249C235 777.4 236.188 776.294 238.49 769C242.21 757.211 245.727 753.16 259.671 744.604C271.651 737.253 274.014 734.294 277.636 722.1C277.954 721.033 278.626 721.239 280.47 722.972C284.139 726.419 285.777 730.72 286.934 739.947C287.513 744.564 288.94 750.31 290.105 752.717C292.896 758.483 303.243 768.831 309.508 772.123C314.932 774.973 322.17 777.054 318.594 774.736C311.03 769.832 304.048 763.6 301.5 759.479L298.5 754.628L298.826 739.463C299.084 727.454 298.828 723.525 297.598 720.581C296.716 718.469 291.787 712.685 286.182 707.182C273.333 694.57 269.469 687.324 269.562 676.018C269.616 669.591 270.092 667.589 272.842 662.22C276.839 654.418 281.281 649.444 289.843 643.184C296.886 638.034 307.869 631.535 308.485 632.152C308.687 632.354 309.993 638.14 311.387 645.009C315.775 666.626 319.03 673.522 330.811 686.162C340.738 696.812 341.183 698.559 338.313 715.595C336.879 724.109 336.806 726.555 337.849 731.217C339.574 738.922 343.94 745.419 349.198 748.101L353.5 750.296L349.891 746.301C342.364 737.969 341.317 729.477 346.452 718.394C348.578 713.806 349.17 711.059 349.124 706C349.072 700.298 346.922 690.42 344.457 684.563C343.769 682.926 344.176 683.032 347.086 685.252C348.981 686.697 356.149 690.534 363.015 693.779C381.604 702.562 384.96 707.096 385.016 723.5C385.049 733.111 387.126 738.457 393.303 744.83C397.08 748.727 401.77 752 403.578 752C403.95 752 402.468 750.061 400.283 747.691C398.099 745.322 395.485 741.218 394.474 738.572C392.848 734.314 392.782 733.115 393.895 728.131C394.587 725.034 395.402 720.587 395.707 718.25C396.011 715.913 396.458 714 396.701 714C396.943 714 399.271 715.796 401.875 717.991C404.604 720.292 408.637 725.393 411.397 730.034C418.953 742.736 422.815 745.718 434.054 747.526C437.889 748.143 438.121 748.38 429.137 742.5C423.05 738.516 420.712 734.772 417.077 723.189C413.258 711.024 410.194 707.108 394.735 694.647C385.756 687.409 381.256 684.517 375.735 682.434C371.756 680.932 366.475 678.693 364 677.458C358.385 674.656 350.958 667.209 348.129 661.543C344.937 655.152 342 642.549 342 635.241V628.802L345.382 630.798C347.243 631.896 352.901 634.63 357.956 636.873C363.011 639.117 371.276 643.827 376.323 647.339C388.071 655.514 391.233 657.075 404 661C409.775 662.776 416.133 665.058 418.128 666.072C423.108 668.604 428.625 675.161 434.164 685.134C442.714 700.528 456.304 710.604 469.806 711.56L476.5 712.034L470.242 709.06C461.367 704.841 455.316 700.442 452.529 696.18C451.205 694.156 448.995 688.022 447.617 682.55C445.703 674.948 444.146 671.231 441.021 666.8L436.931 661H442.498C449.066 661 452.743 662.393 461.029 668.02C470.296 674.313 477.483 677.287 483.402 677.278C488.807 677.27 499.796 675.14 500.526 673.958C500.765 673.571 497.482 673.049 493.23 672.797C483.041 672.194 478.418 670.001 467.792 660.73C452.475 647.368 445.675 644.611 424.266 643.083C403.792 641.621 398.54 639.318 385.854 626.243C379.098 619.279 375.409 616.395 368.979 613.05C354.579 605.558 350.443 600.043 347.435 584.327C345.87 576.146 345.474 549.379 346.884 547.153C347.496 546.187 352.098 545.554 363.119 544.918C407.29 542.37 423.357 536.975 436.448 520.295C446.026 508.093 450.254 495.212 450.212 478.369C450.165 459.73 444.541 445.459 432.53 433.5C420.215 421.237 407.196 415.482 383.889 411.995C365.08 409.181 357.686 407.307 348.5 403.029C338.205 398.234 330.684 392.492 324.804 384.937C315.464 372.937 313.857 362.704 319 348C320.635 343.325 321.979 339.163 321.987 338.75C322.019 336.912 314.99 338.137 312.243 340.449C308.445 343.645 303.525 353.055 301.985 360.068C300.22 368.111 301.042 379.473 303.798 385.12C306.759 391.187 313.205 397.464 319.776 400.679C322.686 402.102 324.876 403.457 324.644 403.69C323.874 404.459 311.721 400.892 307.052 398.526C300.954 395.436 293.789 387.62 291.417 381.472C289.927 377.607 289.5 373.94 289.5 365C289.5 350.424 291.385 344.586 298.289 337.777C304.864 331.293 313.065 326.945 332.724 319.524C355.68 310.857 358.297 309.652 367.612 303.454C379.701 295.411 390.355 283.136 397.487 269.035C406.47 251.275 410.544 232.079 412.029 200.5C413.024 179.354 414.278 172.331 418.576 163.85C423.416 154.3 435.95 143.448 448.613 137.847L453.411 135.725L449.288 134.112C447.021 133.226 444.896 132.23 444.566 131.9C444.236 131.569 447.476 131.028 451.766 130.698C456.056 130.367 460.669 129.688 462.017 129.19C464.301 128.345 464.332 128.241 462.484 127.67C461.393 127.332 456.225 126.317 451 125.414C441.809 123.825 428.536 123.936 422 125.656L419.5 126.314L421.5 124.014C422.6 122.749 424.85 120.88 426.5 119.861C428.15 118.841 428.976 118.006 428.334 118.004C427.693 118.002 423.495 114.627 419.005 110.505C409.007 101.326 404.442 99.6451 389.5 99.6451C377.126 99.6451 370.249 101.549 361.846 107.299C353.782 112.818 347.035 121.731 338.388 138.288C326.252 161.525 321.442 167.234 309.208 172.921C303.397 175.622 302.86 176.958 306.453 179.784C310.768 183.179 317.552 184.507 323.838 183.188C326.876 182.551 329.576 182.242 329.836 182.503C330.096 182.763 328.102 183.987 325.405 185.223C318.596 188.343 306.811 188.306 298.793 185.141C285.057 179.719 267.984 165.558 255.221 149C235.802 123.807 224.084 116.187 185.034 103.356C172.64 99.2841 157.775 94.1821 152 92.0171C146.225 89.8521 135.2 85.7621 127.5 82.9271C74.295 63.3411 31.006 35.1061 9.59799 6.02606C7.19799 2.76606 4.95699 0.37606 4.61699 0.71606ZM556.495 64.0601C544.551 76.1161 534.819 84.163 522 92.581C511.491 99.483 492.285 109.531 481.542 113.748L474.583 116.48L478.303 117.084C480.348 117.417 482.333 118 482.713 118.38C483.094 118.76 482.666 121.065 481.763 123.502C480.577 126.701 480.368 128.796 481.01 131.034C482.794 137.254 480.046 140.19 466.692 146.332C450.623 153.723 439.676 162.785 434.518 172.965C431.33 179.255 428.349 193.269 427.49 206C427.137 211.225 426.411 218.2 425.877 221.5C424.854 227.824 419.696 244.581 417.331 249.263C416.009 251.88 416.072 252.077 418.533 253.013C423.338 254.839 433.183 254.2 437.988 251.75C440.415 250.512 442.563 248.967 442.762 248.315C442.96 247.664 441.299 246.089 439.069 244.815C435.04 242.514 433.405 240.159 436.75 241.474C440.45 242.93 452.828 243.241 457.967 242.008C462.78 240.853 470 236.033 470 233.974C470 233.524 468.313 232.609 466.25 231.942C460.953 230.229 455.992 227.54 452.5 224.488L449.5 221.867L452.5 222.539C470.494 226.568 487.408 223.675 497.431 214.852C501.483 211.285 505.763 205.32 504.824 204.548C504.646 204.401 500 203.782 494.5 203.171C484.981 202.114 472.59 198.877 470.55 196.914C469.973 196.359 472.382 196 476.69 196C491.938 196 511.032 190.465 522.773 182.64C529.343 178.262 535.011 171.933 538.478 165.104C540.139 161.833 540.134 161.738 538.351 162.519C534.259 164.309 518.474 167.996 508.658 169.454C496.666 171.234 478.542 171.517 485.5 169.815C499.891 166.295 517.681 159.147 528.956 152.355C552.37 138.252 562.616 125.624 564.644 108.375L565.3 102.792L558.037 108.403C554.043 111.489 546.307 116.544 540.846 119.636C531.138 125.133 505.977 135.999 503 135.981C502.175 135.976 504.829 134.157 508.899 131.939C534.267 118.111 554.48 99.0261 562.961 80.8931C566.423 73.4931 568.754 60.7611 567.394 56.6821C566.493 53.9801 566.459 54.0041 556.495 64.0601ZM394.585 123.906C391.961 126.805 392.832 132.066 396.25 133.969C398.719 135.344 399.281 135.344 401.75 133.969C407.259 130.902 405.213 122 399 122C397.52 122 395.534 122.858 394.585 123.906ZM351.356 437.715C347.217 438.236 347.077 438.968 346.338 464C345.508 492.09 346.68 519.663 348.736 520.452C349.576 520.774 354.712 521.544 360.151 522.162C388.617 525.399 403.129 514.263 406.195 486.828C408.165 469.198 404.203 454.87 395.157 446.907C386.542 439.323 368.565 435.551 351.356 437.715Z" fill="#CCCCCC"/>
</svg>
